<?xml version="1.0" standalone="no"?>
<!DOCTYPE svg PUBLIC "-//W3C//DTD SVG 20010904//EN"
 "http://www.w3.org/TR/2001/REC-SVG-20010904/DTD/svg10.dtd">
<svg version="1.0" xmlns="http://www.w3.org/2000/svg"
 width="489.000000pt" height="489.000000pt" viewBox="0 0 489.000000 489.000000"
 preserveAspectRatio="xMidYMid meet">
<metadata>
Created by potrace 1.14, written by Peter Selinger 2001-2017
</metadata>
<g transform="translate(0.000000,489.000000) scale(0.100000,-0.100000)"
fill="#000000" stroke="none">
<path d="M0 2445 l0 -2445 2445 0 2445 0 0 2445 0 2445 -2445 0 -2445 0 0
-2445z m2585 1851 c285 -130 264 -547 -32 -643 l-53 -17 0 -134 0 -134 363 4
c199 1 376 -1 393 -5 29 -7 32 -5 68 48 72 109 180 193 299 235 123 44 387 33
457 -19 37 -27 88 -97 101 -139 18 -59 23 -208 9 -271 -28 -129 -114 -245
-229 -311 -50 -29 -61 -39 -56 -55 70 -249 158 -648 186 -839 16 -114 20 -183
18 -295 -4 -147 -4 -147 -42 -224 -45 -91 -125 -175 -219 -230 l-66 -38 9 -37
c14 -60 10 -223 -6 -287 -32 -123 -119 -226 -244 -287 -53 -27 -78 -33 -152
-36 -81 -4 -94 -2 -145 23 -55 27 -98 73 -131 141 l-16 32 -91 -44 c-209 -98
-349 -129 -596 -129 -158 0 -200 3 -289 23 -113 26 -219 61 -292 98 l-46 23
-39 -57 c-29 -42 -53 -64 -94 -85 -51 -26 -62 -28 -146 -25 -79 3 -100 8 -159
37 -125 62 -218 180 -246 312 -18 84 -6 257 25 364 48 163 145 339 265 482 34
39 61 74 61 77 0 3 -6 6 -14 6 -30 0 -175 82 -229 130 -31 28 -57 55 -57 58 0
4 16 20 35 35 l35 28 53 -44 c28 -24 68 -53 88 -65 45 -27 144 -62 176 -62 13
0 65 25 115 55 50 30 94 55 98 55 4 0 13 19 20 43 31 106 97 188 186 231 123
60 424 98 620 77 220 -23 321 -56 407 -132 46 -40 117 -162 117 -201 0 -11 4
-16 10 -13 11 7 70 -22 158 -78 54 -34 67 -38 100 -32 59 11 173 70 229 120
l53 46 35 -27 c19 -14 35 -30 35 -34 0 -22 -122 -115 -199 -153 l-88 -43 54
-59 c98 -109 200 -278 248 -410 10 -27 20 -52 21 -54 7 -9 107 65 153 114 94
100 120 206 101 417 -21 231 -123 709 -207 973 -57 180 -136 272 -298 350
-172 83 -208 88 -632 93 l-373 4 0 -41 0 -41 -50 0 -50 0 0 41 0 40 -392 -4
c-366 -3 -399 -5 -478 -26 -149 -38 -289 -119 -365 -209 -49 -59 -102 -243
-209 -727 -98 -442 -119 -632 -83 -740 23 -69 93 -154 166 -203 33 -22 66 -42
73 -45 10 -3 7 -16 -10 -51 -25 -53 -21 -54 -123 15 -75 51 -142 127 -181 206
-30 62 -33 74 -36 192 -3 101 2 155 22 271 31 182 92 468 155 723 l48 197 -55
31 c-116 65 -198 169 -236 298 -22 74 -21 232 1 300 19 59 79 133 120 149 107
39 322 41 427 3 126 -44 244 -139 309 -247 26 -45 35 -53 52 -46 11 4 194 6
408 4 l387 -4 0 135 0 135 -37 7 c-98 18 -205 112 -243 213 -31 80 -25 205 12
277 25 49 103 131 146 154 85 45 217 49 307 7z m-614 -1186 c257 -66 564 -74
824 -21 47 9 88 15 89 12 2 -3 7 -25 11 -48 l7 -42 -39 -10 c-146 -38 -493
-54 -683 -31 -80 10 -310 57 -319 66 -5 4 20 94 26 94 3 0 41 -9 84 -20z
m1319 -170 c11 -21 20 -43 20 -48 0 -16 -251 -110 -380 -141 -180 -45 -312
-61 -500 -61 -178 0 -278 9 -433 41 -102 20 -297 81 -379 119 l-48 21 21 42
c12 23 22 43 24 45 1 1 27 -9 57 -22 86 -38 271 -94 383 -116 408 -78 828 -23
1212 159 2 1 12 -17 23 -39z m-1589 -282 c41 -20 92 -55 113 -77 39 -40 39
-41 20 -62 -39 -43 -50 -43 -108 5 -72 58 -137 79 -229 74 -82 -5 -142 -29
-206 -84 l-41 -35 -35 28 c-19 15 -35 31 -35 35 0 14 96 89 147 114 76 38 106
43 209 41 83 -3 99 -6 165 -39z m1841 4 c63 -31 158 -105 158 -122 0 -5 -16
-21 -35 -35 l-34 -27 -42 36 c-75 64 -122 81 -224 81 -102 0 -158 -20 -227
-83 l-37 -34 -36 27 c-19 15 -35 31 -35 36 0 13 62 68 110 97 83 50 136 63
241 59 84 -2 103 -6 161 -35z m-1924 -211 c204 -105 107 -415 -120 -385 -55 7
-119 49 -148 96 -59 97 -21 232 79 285 56 29 136 31 189 4z m1863 -16 c99 -70
116 -211 37 -301 -37 -42 -68 -59 -124 -69 -155 -25 -282 145 -215 290 37 80
99 116 193 112 56 -2 74 -8 109 -32z"/>
<path d="M2380 4221 c-72 -22 -139 -81 -166 -147 -22 -52 -18 -141 10 -199 42
-90 114 -135 219 -135 185 0 302 185 221 348 -53 107 -178 165 -284 133z"/>
<path d="M1193 3530 c54 -61 82 -109 108 -190 10 -30 21 -54 26 -53 4 2 41 15
80 29 l73 27 -18 29 c-46 81 -195 187 -284 205 l-33 6 48 -53z"/>
<path d="M832 3547 c-90 -96 -74 -323 33 -453 29 -35 132 -114 149 -114 3 0
14 21 26 47 27 60 79 124 136 165 45 32 46 34 40 76 -8 59 -48 141 -96 195
-83 93 -237 139 -288 84z"/>
<path d="M3643 3551 c-28 -11 -71 -33 -96 -49 -49 -35 -147 -137 -147 -155 0
-10 60 -37 141 -63 13 -4 18 3 24 32 10 58 62 151 112 205 50 53 45 58 -34 30z"/>
<path d="M3852 3529 c-98 -48 -178 -155 -198 -262 -6 -38 -5 -39 67 -106 42
-39 89 -94 109 -128 l35 -61 35 18 c65 33 128 98 162 168 31 63 33 72 33 177
0 95 -3 116 -22 152 -13 23 -33 49 -45 57 -37 26 -107 20 -176 -15z"/>
<path d="M2245 2294 c-246 -32 -330 -83 -378 -228 -23 -68 -22 -189 2 -241 34
-75 45 -79 207 -85 l144 -5 32 -32 c27 -27 32 -41 36 -92 6 -80 22 -94 113
-99 130 -8 179 16 179 86 1 54 33 118 69 137 25 12 58 15 155 14 141 -3 160 4
192 68 14 29 19 58 18 123 -1 142 -52 238 -153 294 -114 62 -398 90 -616 60z"/>
<path d="M3112 1875 c-23 -149 -95 -225 -212 -225 -27 0 -50 -5 -50 -10 0 -6
20 -50 44 -98 49 -98 163 -360 191 -439 11 -29 22 -53 26 -53 3 0 9 -17 13
-37 9 -52 66 -199 99 -255 50 -86 152 -105 270 -50 221 103 271 348 137 673
-95 230 -258 420 -471 547 l-35 21 -12 -74z"/>
<path d="M1658 1881 c-339 -227 -558 -736 -434 -1007 66 -144 260 -236 380
-179 47 23 82 81 137 235 68 187 157 405 230 560 l68 145 -63 7 c-35 3 -76 13
-92 21 -73 37 -119 112 -130 210 -4 31 -10 57 -15 57 -4 0 -40 -22 -81 -49z"/>
<path d="M2692 1638 c-7 -7 -12 -28 -12 -47 -1 -53 -34 -119 -70 -139 -63 -35
-62 -32 -30 -96 76 -149 222 -263 374 -292 37 -6 38 -6 31 17 -35 119 -247
569 -267 569 -8 0 -19 -5 -26 -12z"/>
<path d="M2092 1513 c-91 -192 -192 -429 -192 -453 0 -21 136 17 222 62 73 39
177 146 216 225 l31 61 -44 11 c-46 11 -98 49 -117 84 -6 12 -14 46 -17 77
-10 92 -29 79 -99 -67z"/>
<path d="M2432 1307 c-17 -34 -29 -63 -28 -65 2 -2 30 -2 62 0 l59 3 -31 62
-32 62 -30 -62z"/>
<path d="M2330 1133 c-14 -3 -39 -16 -57 -29 -27 -20 -33 -33 -39 -81 -18
-149 -77 -193 -154 -115 -20 20 -39 43 -41 51 -4 11 -19 11 -96 0 l-90 -12
-17 -51 c-21 -61 -26 -80 -20 -67 3 5 34 -3 69 -19 346 -155 746 -147 1093 22
60 29 82 45 78 55 -4 8 -9 25 -12 38 -5 20 -16 25 -69 34 -35 6 -87 19 -116
28 -40 13 -54 14 -57 5 -2 -7 -18 -34 -35 -60 -39 -56 -76 -73 -115 -51 -39
22 -55 63 -60 159 -3 47 -10 88 -16 92 -12 8 -204 8 -246 1z"/>
<path d="M2688 1040 c5 -36 8 -37 23 -9 9 17 8 23 -2 30 -22 14 -26 11 -21
-21z"/>
<path d="M1454 2336 c-52 -52 -39 -127 27 -162 102 -52 201 86 120 167 -43 43
-101 41 -147 -5z"/>
<path d="M3307 2359 c-24 -14 -47 -62 -47 -98 0 -42 45 -90 90 -97 68 -11 133
62 116 129 -11 44 -54 77 -100 77 -22 0 -49 -5 -59 -11z"/>
</g>
</svg>
