<svg width="157" height="35" viewBox="0 0 157 35" fill="none" xmlns="http://www.w3.org/2000/svg">
<path d="M62.91 9.775H54.93V10.545C56.785 10.65 57.31 11.105 57.87 11.525L52.41 20.835L46.88 11.455C47.405 11.035 47.965 10.65 49.82 10.545V9.775H40.16V10.545C42.085 10.65 43.03 11.28 44.045 12.925L50.065 22.83V29.795C49.54 30.845 47.615 31.125 46.005 31.195V32H57.17V31.195C55.56 31.125 53.95 30.95 53.215 29.305V22.515L59.025 12.96C60.04 11.28 60.95 10.65 62.91 10.545V9.775ZM80.7439 26.365H80.0439C79.9739 29.34 78.3989 30.32 75.9839 30.355L70.5239 30.46C69.8939 30.215 69.6839 29.725 69.5789 29.27V21.57H74.3039C76.8589 21.57 77.6639 21.535 77.9439 24.37H78.6789V17.265H78.0139C77.6639 19.82 76.6489 19.855 74.3039 19.855H69.5789V11.385H74.6189C77.2439 11.385 78.5739 12.12 78.7139 15.2H79.4489V9.565H78.7839C78.3289 9.705 77.6989 9.81 76.6839 9.81H63.0689V10.58C64.6789 10.65 66.0789 11.105 66.3939 11.805V29.585C65.9039 30.74 63.4889 31.23 61.8789 31.3V32.105L69.1239 32H80.7439V26.365ZM100.833 16.04C100.833 12.12 98.0333 9.67 92.0833 9.67C90.4733 9.67 87.1133 9.775 83.2283 9.775V10.545C84.8383 10.615 86.4833 11.07 86.8333 11.875V29.62C86.3433 30.775 84.6283 31.125 83.0183 31.195V32H94.2183V31.195C92.6083 31.125 90.5083 30.6 90.0183 29.445V22.62C91.1033 22.9 91.6633 23.075 92.5033 23.075C97.9633 23.075 100.833 20.03 100.833 16.04ZM97.4033 15.9C97.4033 19.47 95.5133 21.885 91.9783 21.885C91.3133 21.885 90.7883 21.885 90.0183 21.745V11C90.8233 10.93 91.6633 10.93 92.2233 10.93C95.5833 10.93 97.4033 13.17 97.4033 15.9ZM126.62 20.59C126.62 14.15 122.665 9.285 115.63 9.285C108.735 9.285 103.205 14.185 103.205 21.01C103.205 27.73 107.23 32.525 114.16 32.525C121.055 32.525 126.62 27.625 126.62 20.59ZM123.085 21.815C123.085 27.38 119.585 31.09 115.875 31.09C110.03 31.09 106.74 26.295 106.74 19.925C106.74 14.5 110.17 10.685 113.705 10.685C119.445 10.685 123.085 15.165 123.085 21.815Z" fill="white"/>
<g clip-path="url(#clip0_10_245)">
<path d="M17.0868 18.8862C18.6045 19.0497 20.0433 19.2034 20.9089 20.2935C21.938 21.5911 21.888 23.8711 20.9185 24.5536C19.9856 25.211 18.4833 24.2671 17.9005 25.0342C17.5754 25.4629 17.8889 25.9627 17.4908 26.4471C17.1234 26.8931 16.4578 26.9527 15.9731 26.9393C15.4345 26.9624 14.7343 26.9047 14.3958 26.4471C14.0649 26.0011 14.3746 25.5705 14.1111 25.161C13.5937 24.3613 11.9375 25.2764 10.97 24.5536C9.96203 23.8019 9.95241 21.3835 11.0835 20.1243C11.8644 19.2554 13.0224 19.1227 14.7997 18.917C15.2864 18.8613 16.0673 18.7767 17.0868 18.8843V18.8862Z" stroke="white" stroke-width="1.5" stroke-miterlimit="10"/>
<path d="M10.2159 21.9198C9.30995 22.337 7.98847 23.0925 6.82666 24.4421C4.87234 26.7124 3.32389 30.7245 4.98391 32.9507C5.68215 33.8869 7.16712 34.777 8.54245 34.2849C9.52346 33.9331 9.78121 32.8219 10.5122 30.8572C11.0507 29.4038 11.8586 27.4218 13.0435 25.0899" stroke="white" stroke-width="1.5" stroke-miterlimit="10"/>
<path d="M21.9033 21.9198C22.8093 22.337 24.1308 23.0925 25.2926 24.4421C27.2469 26.7124 28.7954 30.7245 27.1354 32.9507C26.4371 33.8869 24.9521 34.777 23.5768 34.2849C22.567 33.9235 22.3034 32.7585 21.6071 30.8572C21.0627 29.3711 20.2145 27.2969 18.9122 24.8419" stroke="white" stroke-width="1.5" stroke-miterlimit="10"/>
<path d="M10.2833 31.0456C10.6949 31.0744 12.5896 31.159 14.2227 29.7748C15.4557 28.729 15.8538 27.4276 15.9769 26.9393" stroke="white" stroke-width="1.5" stroke-miterlimit="10"/>
<path d="M10.2833 32.9122C11.2373 33.4005 13.3513 34.3214 16.1654 34.2195C18.8911 34.1195 20.882 33.1122 21.8033 32.5681" stroke="white" stroke-width="1.5" stroke-miterlimit="10"/>
<path d="M27.9259 28.5695C28.5568 28.2658 29.4205 27.7313 30.0437 26.7913C30.6131 25.9339 31.1363 24.5036 29.761 18.5364C28.9569 15.0472 28.5376 13.2843 27.672 12.3558C25.3003 9.81241 21.4321 10.0527 20.3453 10.1546H11.5547C10.3428 10.045 6.45922 9.8374 4.22791 12.3558C3.8182 12.8172 3.52967 13.2978 2.37939 18.4095C1.11755 24.0249 1.01176 25.4725 1.85619 26.7913C2.47557 27.7582 3.37002 28.2869 3.97401 28.5695" stroke="white" stroke-width="1.5" stroke-miterlimit="10"/>
<path d="M7.79609 21.0567C8.56947 21.0567 9.19643 20.4301 9.19643 19.6571C9.19643 18.8842 8.56947 18.2576 7.79609 18.2576C7.0227 18.2576 6.39575 18.8842 6.39575 19.6571C6.39575 20.4301 7.0227 21.0567 7.79609 21.0567Z" stroke="white" stroke-width="1.5" stroke-miterlimit="10"/>
<path d="M24.3231 21.0567C25.0965 21.0567 25.7235 20.4301 25.7235 19.6571C25.7235 18.8842 25.0965 18.2576 24.3231 18.2576C23.5497 18.2576 22.9228 18.8842 22.9228 19.6571C22.9228 20.4301 23.5497 21.0567 24.3231 21.0567Z" stroke="white" stroke-width="1.5" stroke-miterlimit="10"/>
<path d="M8.39819 13.8418C9.82354 14.4877 12.2414 15.3624 15.3441 15.4509C19.2181 15.5624 22.1861 14.3916 23.6884 13.6726" stroke="white" stroke-width="1.5" stroke-miterlimit="10"/>
<path d="M10.8949 12.3135C12.0279 12.6461 13.5782 12.9806 15.4383 13.0325C17.333 13.0844 18.9238 12.8287 20.0836 12.5519" stroke="white" stroke-width="1.5" stroke-miterlimit="10"/>
<path d="M5.52633 11.137C5.36668 8.71663 3.35273 7.21137 1.71388 7.51703C1.60424 7.53818 1.52729 7.59585 1.47343 7.62853C0.442418 8.2514 0.34047 10.3065 0.95985 11.6791C1.63501 13.1747 3.11037 13.7342 3.49315 13.8668" stroke="white" stroke-width="1.5" stroke-miterlimit="10"/>
<path d="M14.3227 29.5038C14.8074 29.4288 15.3653 29.3731 15.9846 29.3615C16.6406 29.35 17.233 29.3923 17.7427 29.4576" stroke="white" stroke-width="1.5" stroke-miterlimit="10"/>
<path d="M22.138 31.0456C21.7264 31.0744 19.8317 31.159 18.1986 29.7748C16.9656 28.729 16.5674 27.4276 16.4443 26.9393" stroke="white" stroke-width="1.5" stroke-miterlimit="10"/>
<path d="M12.5068 30.5996C12.5626 30.7361 13.0243 31.8338 13.3647 31.7742C13.6321 31.7261 13.7764 30.9764 13.7456 29.9325" stroke="white" stroke-width="1.5" stroke-miterlimit="10"/>
<path d="M19.0142 30.5996C18.9584 30.7361 18.4968 31.8338 18.1563 31.7742C17.8889 31.7261 17.7447 30.9764 17.7755 29.9325" stroke="white" stroke-width="1.5" stroke-miterlimit="10"/>
<path d="M27.2084 21.3239C26.9449 21.6334 26.5314 22.0467 25.937 22.4023C25.1291 22.8887 24.3635 23.0444 23.9038 23.1002" stroke="white" stroke-width="1.5" stroke-miterlimit="10"/>
<path d="M4.74536 21.3239C5.00889 21.6334 5.42245 22.0467 6.01682 22.4023C6.82471 22.8887 7.59028 23.0444 8.05 23.1002" stroke="white" stroke-width="1.5" stroke-miterlimit="10"/>
<path d="M4.98389 17.479C5.08391 17.3598 6.2438 16.0276 8.0327 16.2083C9.43688 16.3505 10.2486 17.3271 10.4044 17.5213" stroke="white" stroke-width="1.5" stroke-miterlimit="10"/>
<path d="M21.6129 17.479C21.7129 17.3598 22.8728 16.0276 24.6617 16.2083C26.0659 16.3505 26.8776 17.3271 27.0334 17.5213" stroke="white" stroke-width="1.5" stroke-miterlimit="10"/>
<path d="M8.13659 10.5987C8.00002 10.2046 7.48644 8.87424 6.06302 8.00146C4.35684 6.95374 2.61988 7.34399 2.28711 7.42473" stroke="white" stroke-width="1.5" stroke-miterlimit="10"/>
<path d="M26.3948 11.2331C26.5545 8.81273 28.5684 7.30747 30.2073 7.61313C30.315 7.63236 30.3881 7.68811 30.4477 7.72463C31.4922 8.3475 31.6788 10.3507 31.094 11.7214C30.4016 13.3458 28.7185 13.8764 28.428 13.9629" stroke="white" stroke-width="1.5" stroke-miterlimit="10"/>
<path d="M23.7845 10.6948C23.9211 10.3007 24.4347 8.97037 25.8581 8.09759C27.5643 7.04987 29.3013 7.44012 29.634 7.52086" stroke="white" stroke-width="1.5" stroke-miterlimit="10"/>
<path d="M16.1019 11.235V6.4097" stroke="white" stroke-width="1.5" stroke-miterlimit="10"/>
<path d="M16.0442 6.92491C17.522 6.92491 18.7199 5.72767 18.7199 4.25081C18.7199 2.77395 17.522 1.57672 16.0442 1.57672C14.5665 1.57672 13.3686 2.77395 13.3686 4.25081C13.3686 5.72767 14.5665 6.92491 16.0442 6.92491Z" stroke="white" stroke-width="1.5" stroke-miterlimit="10"/>
</g>
<defs>
<clipPath id="clip0_10_245">
<rect width="32" height="34" fill="white" transform="translate(0 1)"/>
</clipPath>
</defs>
</svg>
