<svg width="167" height="177" viewBox="0 0 167 177" fill="none" xmlns="http://www.w3.org/2000/svg">
<g clip-path="url(#clip0_10_43)">
<path d="M88.83 93.04C96.72 93.89 104.2 94.69 108.7 100.36C114.05 107.11 113.79 118.97 108.75 122.52C103.9 125.94 96.09 121.03 93.06 125.02C91.37 127.25 93 129.85 90.93 132.37C89.02 134.69 85.56 135 83.04 134.93C80.24 135.05 76.6 134.75 74.84 132.37C73.12 130.05 74.73 127.81 73.36 125.68C70.67 121.52 62.06 126.28 57.03 122.52C51.79 118.61 51.74 106.03 57.62 99.48C61.68 94.96 67.7 94.27 76.94 93.2C79.47 92.91 83.53 92.47 88.83 93.03V93.04Z" stroke="white" stroke-width="6" stroke-miterlimit="10"/>
<path d="M53.11 108.82C48.4 110.99 41.53 114.92 35.49 121.94C25.33 133.75 17.28 154.62 25.91 166.2C29.54 171.07 37.26 175.7 44.41 173.14C49.51 171.31 50.85 165.53 54.65 155.31C57.45 147.75 61.65 137.44 67.81 125.31" stroke="white" stroke-width="6" stroke-miterlimit="10"/>
<path d="M113.87 108.82C118.58 110.99 125.45 114.92 131.49 121.94C141.65 133.75 149.7 154.62 141.07 166.2C137.44 171.07 129.72 175.7 122.57 173.14C117.32 171.26 115.95 165.2 112.33 155.31C109.5 147.58 105.09 136.79 98.32 124.02" stroke="white" stroke-width="6" stroke-miterlimit="10"/>
<path d="M53.46 156.29C55.6 156.44 65.45 156.88 73.94 149.68C80.35 144.24 82.42 137.47 83.06 134.93" stroke="white" stroke-width="6" stroke-miterlimit="10"/>
<path d="M53.46 166C58.42 168.54 69.41 173.33 84.04 172.8C98.21 172.28 108.56 167.04 113.35 164.21" stroke="white" stroke-width="6" stroke-miterlimit="10"/>
<path d="M145.18 143.41C148.46 141.83 152.95 139.05 156.19 134.16C159.15 129.7 161.87 122.26 154.72 91.22C150.54 73.07 148.36 63.9 143.86 59.07C131.53 45.84 111.42 47.09 105.77 47.62H60.07C53.77 47.05 33.58 45.97 21.98 59.07C19.85 61.47 18.35 63.97 12.37 90.56C5.80999 119.77 5.25999 127.3 9.64999 134.16C12.87 139.19 17.52 141.94 20.66 143.41" stroke="white" stroke-width="6" stroke-miterlimit="10"/>
<path d="M40.53 104.33C44.5506 104.33 47.81 101.071 47.81 97.05C47.81 93.0294 44.5506 89.77 40.53 89.77C36.5094 89.77 33.25 93.0294 33.25 97.05C33.25 101.071 36.5094 104.33 40.53 104.33Z" stroke="white" stroke-width="6" stroke-miterlimit="10"/>
<path d="M126.45 104.33C130.471 104.33 133.73 101.071 133.73 97.05C133.73 93.0294 130.471 89.77 126.45 89.77C122.429 89.77 119.17 93.0294 119.17 97.05C119.17 101.071 122.429 104.33 126.45 104.33Z" stroke="white" stroke-width="6" stroke-miterlimit="10"/>
<path d="M43.66 66.8C51.07 70.16 63.64 74.71 79.77 75.17C99.91 75.75 115.34 69.66 123.15 65.92" stroke="white" stroke-width="6" stroke-miterlimit="10"/>
<path d="M56.64 58.85C62.53 60.58 70.59 62.32 80.26 62.59C90.11 62.86 98.38 61.53 104.41 60.09" stroke="white" stroke-width="6" stroke-miterlimit="10"/>
<path d="M28.73 52.73C27.9 40.14 17.43 32.31 8.91 33.9C8.34 34.01 7.94 34.31 7.66 34.48C2.3 37.72 1.77 48.41 4.99 55.55C8.5 63.33 16.17 66.24 18.16 66.93" stroke="white" stroke-width="6" stroke-miterlimit="10"/>
<path d="M74.46 148.27C76.98 147.88 79.88 147.59 83.1 147.53C86.51 147.47 89.59 147.69 92.24 148.03" stroke="white" stroke-width="6" stroke-miterlimit="10"/>
<path d="M115.09 156.29C112.95 156.44 103.1 156.88 94.61 149.68C88.2 144.24 86.13 137.47 85.49 134.93" stroke="white" stroke-width="6" stroke-miterlimit="10"/>
<path d="M65.02 153.97C65.31 154.68 67.71 160.39 69.48 160.08C70.87 159.83 71.62 155.93 71.46 150.5" stroke="white" stroke-width="6" stroke-miterlimit="10"/>
<path d="M98.85 153.97C98.56 154.68 96.16 160.39 94.39 160.08C93 159.83 92.25 155.93 92.41 150.5" stroke="white" stroke-width="6" stroke-miterlimit="10"/>
<path d="M141.45 105.72C140.08 107.33 137.93 109.48 134.84 111.33C130.64 113.86 126.66 114.67 124.27 114.96" stroke="white" stroke-width="6" stroke-miterlimit="10"/>
<path d="M24.67 105.72C26.04 107.33 28.19 109.48 31.28 111.33C35.48 113.86 39.46 114.67 41.85 114.96" stroke="white" stroke-width="6" stroke-miterlimit="10"/>
<path d="M25.91 85.72C26.43 85.1 32.46 78.17 41.76 79.11C49.06 79.85 53.28 84.93 54.09 85.94" stroke="white" stroke-width="6" stroke-miterlimit="10"/>
<path d="M112.36 85.72C112.88 85.1 118.91 78.17 128.21 79.11C135.51 79.85 139.73 84.93 140.54 85.94" stroke="white" stroke-width="6" stroke-miterlimit="10"/>
<path d="M42.3 49.93C41.59 47.88 38.92 40.96 31.52 36.42C22.65 30.97 13.62 33 11.89 33.42" stroke="white" stroke-width="6" stroke-miterlimit="10"/>
<path d="M137.22 53.23C138.05 40.64 148.52 32.81 157.04 34.4C157.6 34.5 157.98 34.79 158.29 34.98C163.72 38.22 164.69 48.64 161.65 55.77C158.05 64.22 149.3 66.98 147.79 67.43" stroke="white" stroke-width="6" stroke-miterlimit="10"/>
<path d="M123.65 50.43C124.36 48.38 127.03 41.46 134.43 36.92C143.3 31.47 152.33 33.5 154.06 33.92" stroke="white" stroke-width="6" stroke-miterlimit="10"/>
<path d="M83.71 53.24V28.14" stroke="white" stroke-width="6" stroke-miterlimit="10"/>
<path d="M83.41 30.82C91.0923 30.82 97.32 24.5923 97.32 16.91C97.32 9.22772 91.0923 3 83.41 3C75.7277 3 69.5 9.22772 69.5 16.91C69.5 24.5923 75.7277 30.82 83.41 30.82Z" stroke="white" stroke-width="6" stroke-miterlimit="10"/>
</g>
<defs>
<clipPath id="clip0_10_43">
<rect width="166.36" height="176.86" fill="white"/>
</clipPath>
</defs>
</svg>
