<?xml version="1.0" encoding="UTF-8"?>
<svg id="Layer_1" data-name="Layer 1" xmlns="http://www.w3.org/2000/svg" viewBox="0 0 166.36 176.86">
  <defs>
    <style>
      .cls-1 {
        fill: none;
      }

      .cls-1, .cls-2 {
        stroke: #231f20;
        stroke-miterlimit: 10;
        stroke-width: 6px;
      }

      .cls-2 {
        fill: #fff;
      }
    </style>
  </defs>
  <path class="cls-2" d="M88.83,93.04c7.89,.85,15.37,1.65,19.87,7.32,5.35,6.75,5.09,18.61,.05,22.16-4.85,3.42-12.66-1.49-15.69,2.5-1.69,2.23-.06,4.83-2.13,7.35-1.91,2.32-5.37,2.63-7.89,2.56-2.8,.12-6.44-.18-8.2-2.56-1.72-2.32-.11-4.56-1.48-6.69-2.69-4.16-11.3,.6-16.33-3.16-5.24-3.91-5.29-16.49,.59-23.04,4.06-4.52,10.08-5.21,19.32-6.28,2.53-.29,6.59-.73,11.89-.17Z"/>
  <path class="cls-1" d="M53.11,108.82c-4.71,2.17-11.58,6.1-17.62,13.12-10.16,11.81-18.21,32.68-9.58,44.26,3.63,4.87,11.35,9.5,18.5,6.94,5.1-1.83,6.44-7.61,10.24-17.83,2.8-7.56,7-17.87,13.16-30"/>
  <path class="cls-1" d="M113.87,108.82c4.71,2.17,11.58,6.1,17.62,13.12,10.16,11.81,18.21,32.68,9.58,44.26-3.63,4.87-11.35,9.5-18.5,6.94-5.25-1.88-6.62-7.94-10.24-17.83-2.83-7.73-7.24-18.52-14.01-31.29"/>
  <path class="cls-1" d="M53.46,156.29c2.14,.15,11.99,.59,20.48-6.61,6.41-5.44,8.48-12.21,9.12-14.75"/>
  <path class="cls-1" d="M53.46,166c4.96,2.54,15.95,7.33,30.58,6.8,14.17-.52,24.52-5.76,29.31-8.59"/>
  <path class="cls-1" d="M145.18,143.41c3.28-1.58,7.77-4.36,11.01-9.25,2.96-4.46,5.68-11.9-1.47-42.94-4.18-18.15-6.36-27.32-10.86-32.15-12.33-13.23-32.44-11.98-38.09-11.45H60.07c-6.3-.57-26.49-1.65-38.09,11.45-2.13,2.4-3.63,4.9-9.61,31.49-6.56,29.21-7.11,36.74-2.72,43.6,3.22,5.03,7.87,7.78,11.01,9.25"/>
  <circle class="cls-1" cx="40.53" cy="97.05" r="7.28"/>
  <circle class="cls-1" cx="126.45" cy="97.05" r="7.28"/>
  <path class="cls-1" d="M43.66,66.8c7.41,3.36,19.98,7.91,36.11,8.37,20.14,.58,35.57-5.51,43.38-9.25"/>
  <path class="cls-1" d="M56.64,58.85c5.89,1.73,13.95,3.47,23.62,3.74,9.85,.27,18.12-1.06,24.15-2.5"/>
  <path class="cls-1" d="M28.73,52.73c-.83-12.59-11.3-20.42-19.82-18.83-.57,.11-.97,.41-1.25,.58-5.36,3.24-5.89,13.93-2.67,21.07,3.51,7.78,11.18,10.69,13.17,11.38"/>
  <path class="cls-1" d="M74.46,148.27c2.52-.39,5.42-.68,8.64-.74,3.41-.06,6.49,.16,9.14,.5"/>
  <path class="cls-1" d="M115.09,156.29c-2.14,.15-11.99,.59-20.48-6.61-6.41-5.44-8.48-12.21-9.12-14.75"/>
  <path class="cls-1" d="M65.02,153.97c.29,.71,2.69,6.42,4.46,6.11,1.39-.25,2.14-4.15,1.98-9.58"/>
  <path class="cls-1" d="M98.85,153.97c-.29,.71-2.69,6.42-4.46,6.11-1.39-.25-2.14-4.15-1.98-9.58"/>
  <path class="cls-1" d="M141.45,105.72c-1.37,1.61-3.52,3.76-6.61,5.61-4.2,2.53-8.18,3.34-10.57,3.63"/>
  <path class="cls-1" d="M24.67,105.72c1.37,1.61,3.52,3.76,6.61,5.61,4.2,2.53,8.18,3.34,10.57,3.63"/>
  <path class="cls-1" d="M25.91,85.72c.52-.62,6.55-7.55,15.85-6.61,7.3,.74,11.52,5.82,12.33,6.83"/>
  <path class="cls-1" d="M112.36,85.72c.52-.62,6.55-7.55,15.85-6.61,7.3,.74,11.52,5.82,12.33,6.83"/>
  <path class="cls-1" d="M42.3,49.93c-.71-2.05-3.38-8.97-10.78-13.51-8.87-5.45-17.9-3.42-19.63-3"/>
  <path class="cls-1" d="M137.22,53.23c.83-12.59,11.3-20.42,19.82-18.83,.56,.1,.94,.39,1.25,.58,5.43,3.24,6.4,13.66,3.36,20.79-3.6,8.45-12.35,11.21-13.86,11.66"/>
  <path class="cls-1" d="M123.65,50.43c.71-2.05,3.38-8.97,10.78-13.51,8.87-5.45,17.9-3.42,19.63-3"/>
  <path class="cls-1" d="M83.71,53.24V28.14"/>
  <circle class="cls-1" cx="83.41" cy="16.91" r="13.91"/>
</svg>